<?xml version="1.0" encoding="UTF-8" standalone="no"?>
<!-- Created with Inkscape (http://www.inkscape.org/) -->

<svg
   xmlns:dc="http://purl.org/dc/elements/1.1/"
   xmlns:cc="http://creativecommons.org/ns#"
   xmlns:rdf="http://www.w3.org/1999/02/22-rdf-syntax-ns#"
   xmlns:svg="http://www.w3.org/2000/svg"
   xmlns="http://www.w3.org/2000/svg"
   xmlns:sodipodi="http://sodipodi.sourceforge.net/DTD/sodipodi-0.dtd"
   xmlns:inkscape="http://www.inkscape.org/namespaces/inkscape"
   width="32"
   height="32"
   id="svg2"
   version="1.1"
   inkscape:version="0.48.4 r9939"
   sodipodi:docname="favicon.svg"
   inkscape:export-filename="C:\_GITHUB\scrolls-and-decks\client\favicon.png"
   inkscape:export-xdpi="90"
   inkscape:export-ydpi="90">
  <defs
     id="defs4" />
  <sodipodi:namedview
     id="base"
     pagecolor="#ffffff"
     bordercolor="#666666"
     borderopacity="1.0"
     inkscape:pageopacity="0.0"
     inkscape:pageshadow="2"
     inkscape:zoom="1"
     inkscape:cx="16"
     inkscape:cy="16.000037"
     inkscape:document-units="px"
     inkscape:current-layer="layer1"
     showgrid="false"
     inkscape:window-width="1920"
     inkscape:window-height="1057"
     inkscape:window-x="-8"
     inkscape:window-y="-8"
     inkscape:window-maximized="1" />
  <metadata
     id="metadata7">
    <rdf:RDF>
      <cc:Work
         rdf:about="">
        <dc:format>image/svg+xml</dc:format>
        <dc:type
           rdf:resource="http://purl.org/dc/dcmitype/StillImage" />
        <dc:title />
      </cc:Work>
    </rdf:RDF>
  </metadata>
  <g
     inkscape:label="Layer 1"
     inkscape:groupmode="layer"
     id="layer1"
     transform="translate(0,-1020.3622)">
    <path
       style="fill:#000000;opacity:0.87"
       d="m 13.574605,1052.2343 c -1.180797,-0.2223 -3.061619,-0.7986 -4.1891863,-1.2836 -1.9737085,-0.849 -3.8532822,-2.125 -4.2413634,-2.8793 -0.141727,-0.2756 -0.3970592,-0.5297 -0.6975803,-0.6943 -0.845887,-0.4634 -2.1323689,-2.3093 -3.0132972,-4.3235 -0.54887845,-1.2551 -1.1604936,-3.3263 -1.33828863,-4.5322 -0.19153763,-1.2991 -0.0793422,-4.0229 0.21308876,-5.1733 0.59407639,-2.3372 1.48347997,-4.4203 2.60748917,-6.1074 0.6961132,-1.0448 3.0820705,-3.4584 3.7349989,-3.7782 0.2463351,-0.1206 0.6568453,-0.396 0.9122459,-0.6119 0.980625,-0.8292 3.2861731,-1.7587 5.5260561,-2.2278 1.658737,-0.3475 4.163728,-0.3475 5.822464,0 2.351188,0.4925 4.320196,1.3113 6.093756,2.5337 1.186756,0.8181 3.331273,2.9657 4.078182,4.0842 1.123267,1.682 2.014054,3.7674 2.608852,6.1074 0.292433,1.1504 0.404626,3.8742 0.213088,5.1733 -0.285346,1.9353 -1.524781,5.4037 -2.175917,6.089 -0.149549,0.1574 -0.354853,0.4861 -0.456234,0.7303 -0.265629,0.6401 -1.305013,1.9426 -2.222345,2.7848 -1.979138,1.8172 -4.577636,3.1237 -7.859455,3.9513 -1.166467,0.2943 -4.407426,0.3851 -5.616554,0.1575 z"
       id="path3050" />
    <path
       style="fill:#ffdb5f;fill-opacity:1"
       d="m 18.011753,1050.3019 c 3.609508,-0.55 6.792312,-2.3437 9.025242,-5.0864 0.393904,-0.4839 0.716188,-0.9309 0.716188,-0.9934 0,-0.062 -0.201547,-0.4131 -0.447882,-0.7789 -0.461279,-0.6851 -0.551784,-0.9285 -0.307919,-0.8281 0.07698,0.031 0.404053,0.1684 0.72683,0.3038 0.73766,0.3097 0.783867,0.2752 1.316668,-0.9829 1.47448,-3.4814 1.551893,-7.3798 0.212739,-10.7131 -1.79271,-4.4623 -5.611255,-7.6659 -10.364283,-8.6952 -0.45188,-0.098 -1.53271,-0.2049 -2.401868,-0.2375 -1.822361,-0.068 -3.26952,0.1216 -4.868276,0.6397 -1.176517,0.3813 -2.997274,1.2705 -3.089497,1.5089 -0.03673,0.095 -0.0048,0.447 0.07085,0.7824 0.07568,0.3354 0.110298,0.6369 0.07692,0.67 -0.03339,0.033 -0.309153,-0.1208 -0.612822,-0.3417 -0.3036675,-0.2211 -0.6057614,-0.402 -0.6713208,-0.402 -0.2241544,0 -2.1579462,1.9237 -2.8188972,2.8041 -0.821449,1.0944 -1.690496,2.7572 -2.11633,4.0495 -0.532316,1.6154 -0.72197,3.0349 -0.647847,4.8489 0.09652,2.3618 0.531469,4.0063 1.604754,6.0675 0.636158,1.2218 1.777386,2.8049 2.059676,2.8573 0.09039,0.017 0.6138985,-0.3201 1.1633512,-0.7486 0.5494516,-0.4286 1.0382784,-0.7793 1.0862819,-0.7793 0.048008,0 -0.1622101,0.5299 -0.4671428,1.1775 -0.3049337,0.6476 -0.5544234,1.2903 -0.5544234,1.4283 0,0.5786 3.4021291,2.5487 5.2737521,3.054 2.006307,0.5417 4.151793,0.6822 6.035262,0.3952 z"
       id="path2998"
       inkscape:connector-curvature="0" />
    <path
       style="fill:#202020;fill-opacity:1"
       d="m 14.817463,1045.9145 c -4.084174,-0.5694 -7.1798968,-3.2867 -8.245957,-7.2379 -0.3470937,-1.2864 -0.3451006,-3.4202 0.00442,-4.7012 0.7691895,-2.8192 2.679435,-5.0993 5.306131,-6.3334 1.396094,-0.656 2.390137,-0.864 4.114258,-0.8609 1.678704,0 2.617751,0.1909 3.952487,0.7911 6.073835,2.7313 7.682292,10.5034 3.168312,15.3096 -1.77947,1.8947 -4.007056,2.9349 -6.577012,3.0712 -0.576208,0.03 -1.351382,0.013 -1.722609,-0.038 z"
       id="path2986"
       inkscape:connector-curvature="0" />
    <path
       style="fill:#ffdb5f;fill-opacity:1"
       d="m 17.872037,1044.2615 c 0.445746,-0.1129 1.084088,-0.3252 1.418536,-0.4719 0.668686,-0.2933 0.641809,-0.2118 0.409206,-1.241 l -0.06956,-0.3078 0.454371,0.3856 c 0.249905,0.2122 0.491264,0.3858 0.536354,0.3858 0.182667,0 1.224053,-0.9372 1.738506,-1.5646 1.91198,-2.3317 2.361082,-5.7027 1.11812,-8.3927 -0.449178,-0.9721 -1.107641,-1.8841 -1.900432,-2.6321 -0.691733,-0.6527 -1.544265,-1.2285 -1.818944,-1.2285 -0.09802,0 -0.472202,0.3288 -0.831508,0.7307 -0.359305,0.402 -0.674635,0.7096 -0.700734,0.6837 -0.0261,-0.025 0.003,-0.456 0.06465,-0.9558 0.07436,-0.603 0.07706,-0.9507 0.008,-1.0333 -0.328902,-0.393 -2.929888,-0.485 -4.249629,-0.1502 -3.716148,0.9424 -6.2238869,4.123 -6.2238869,7.8935 0,3.7455 2.4975889,6.932 6.1831009,7.8889 1.082484,0.281 2.775372,0.2853 3.86385,0.01 z"
       id="path2988"
       inkscape:connector-curvature="0" />
  </g>
</svg>
