<?xml version="1.0" encoding="UTF-8" standalone="no"?>
<!-- Created with Inkscape (http://www.inkscape.org/) -->

<svg
   xmlns:dc="http://purl.org/dc/elements/1.1/"
   xmlns:cc="http://creativecommons.org/ns#"
   xmlns:rdf="http://www.w3.org/1999/02/22-rdf-syntax-ns#"
   xmlns:svg="http://www.w3.org/2000/svg"
   xmlns="http://www.w3.org/2000/svg"
   xmlns:sodipodi="http://sodipodi.sourceforge.net/DTD/sodipodi-0.dtd"
   xmlns:inkscape="http://www.inkscape.org/namespaces/inkscape"
   width="512"
   height="512"
   id="svg2"
   version="1.1"
   inkscape:version="0.48.4 r9939"
   sodipodi:docname="logo.svg"
   inkscape:export-filename="C:\_GITHUB\scrolls-and-decks\client\logo.png"
   inkscape:export-xdpi="90"
   inkscape:export-ydpi="90">
  <defs
     id="defs4" />
  <sodipodi:namedview
     id="base"
     pagecolor="#ffffff"
     bordercolor="#666666"
     borderopacity="1.0"
     inkscape:pageopacity="0.0"
     inkscape:pageshadow="2"
     inkscape:zoom="0.5"
     inkscape:cx="256"
     inkscape:cy="536.33361"
     inkscape:document-units="px"
     inkscape:current-layer="layer1"
     showgrid="false"
     inkscape:window-width="1920"
     inkscape:window-height="1057"
     inkscape:window-x="-8"
     inkscape:window-y="-8"
     inkscape:window-maximized="1" />
  <metadata
     id="metadata7">
    <rdf:RDF>
      <cc:Work
         rdf:about="">
        <dc:format>image/svg+xml</dc:format>
        <dc:type
           rdf:resource="http://purl.org/dc/dcmitype/StillImage" />
        <dc:title />
      </cc:Work>
    </rdf:RDF>
  </metadata>
  <g
     inkscape:label="Layer 1"
     inkscape:groupmode="layer"
     id="layer1"
     transform="translate(0,-540.3622)">
    <path
       style="opacity:0.87000002;fill:#000000"
       d="m 219.61908,1034.4443 c -17.71196,-3.3345 -45.92429,-11.979 -62.8378,-19.254 -29.60563,-12.735 -57.799232,-31.87506 -63.62045,-43.18956 -2.125905,-4.134 -5.955888,-7.9455 -10.463705,-10.4145 -12.688305,-6.951 -31.985533,-34.6395 -45.199458,-64.8525 -8.233176,-18.8265 -17.407404,-49.8945 -20.074329,-67.983 -2.873064,-19.4865 -1.190133,-60.3435 3.196331,-77.5995 8.911146,-35.058 22.2522,-66.3045 39.112338,-91.611 10.441698,-15.672 46.231053,-51.876 56.024983,-56.673 3.69503,-1.809 9.85268,-5.94 13.68369,-9.1785 14.70937,-12.438 49.2926,-26.3805 82.89084,-33.417 24.88106,-5.2125 62.45592,-5.2125 87.33696,0 35.26782,7.3875 64.80294,19.6695 91.40634,38.0055 17.80134,12.2715 49.96909,44.4855 61.17273,61.263 16.849,25.23 30.21081,56.511 39.13278,91.611 4.38649,17.256 6.06939,58.113 3.19632,77.5995 -4.28019,29.0295 -22.87172,81.0555 -32.63876,91.335 -2.24323,2.361 -5.32279,7.2915 -6.84351,10.9545 -3.98443,9.6015 -19.57519,29.139 -33.33517,41.772 -29.68707,27.25806 -68.66454,46.85556 -117.89183,59.26956 -17.497,4.4145 -66.11139,5.7765 -84.2483,2.3625 z"
       id="path3050"
       inkscape:connector-curvature="0" />
    <path
       style="fill:#ffdb5f;fill-opacity:1"
       d="m 442.95982,894.72759 c 25.11895,-48.66749 31.37948,-103.11027 17.75085,-154.3806 -2.40503,-9.04504 -4.99296,-16.8955 -5.75176,-17.44606 -0.75272,-0.54617 -6.79082,-1.19209 -13.40193,-1.42374 -12.38113,-0.43478 -16.13348,-1.4801 -12.76631,-3.5564 1.05449,-0.66152 5.60385,-3.42209 10.09109,-6.14814 10.25812,-6.22764 10.24631,-7.09253 -0.3346,-24.64389 -29.27831,-48.56937 -75.92625,-83.85056 -128.19204,-96.9554 -69.96822,-17.54375 -142.5005,0.59583 -196.86687,49.23441 -5.17045,4.62291 -15.989433,16.80342 -24.041704,27.06854 -16.8789,21.52599 -27.325139,40.76593 -35.11854,64.74016 -5.734727,17.6428 -10.978288,47.58137 -8.896308,50.80112 0.829823,1.2828 5.384674,3.99593 10.12312,6.03205 4.73871,2.03574 8.704128,4.27138 8.811959,4.9682 0.106515,0.69608 -4.18997,2.68924 -9.546925,4.43012 -5.359376,1.73909 -10.216825,3.81321 -10.794343,4.60915 -1.974591,2.72142 4.34582,43.14532 9.212248,58.92534 6.050729,19.61374 18.583018,44.81244 30.521424,61.3664 14.923105,20.69295 30.486359,35.50001 53.162799,50.57977 29.5245,19.63345 53.32162,28.83938 87.80098,33.96598 20.43765,3.0395 49.71099,3.1297 52.83389,0.164 1.00264,-0.9476 1.5216,-10.27301 1.15942,-20.71852 -0.36341,-10.44637 -0.31508,-19.47048 0.10779,-20.05329 0.4229,-0.58286 5.0045,6.63729 10.18073,16.0442 5.17623,9.40692 10.78138,18.09751 12.45681,19.31321 7.0247,5.0969 60.91302,-18.85303 83.53507,-37.12489 24.25044,-19.58635 44.85599,-44.39669 57.96321,-69.79179 z"
       id="path2998"
       inkscape:connector-curvature="0" />
    <path
       style="fill:#202020;fill-opacity:1"
       d="m 238.26194,939.64724 c -61.2626,-8.541 -107.69845,-49.3005 -123.68935,-108.5685 -5.2064,-19.296 -5.17651,-51.303 0.0663,-70.518 11.53784,-42.288 40.19153,-76.4895 79.59197,-95.001 20.94141,-9.84 35.85205,-12.96 61.71386,-12.9135 25.18056,0 39.26627,2.8635 59.28731,11.8665 91.10752,40.9695 115.23438,157.551 47.52468,229.644 -26.69205,28.4205 -60.10584,44.0235 -98.65518,46.068 -8.64312,0.45 -20.27073,0.195 -25.83914,-0.57 z"
       id="path2986"
       inkscape:connector-curvature="0" />
    <path
       style="fill:#ffdb5f;fill-opacity:1"
       d="m 284.08055,914.85224 c 6.68619,-1.6935 16.26132,-4.878 21.27804,-7.0785 10.03029,-4.3995 9.62714,-3.177 6.13809,-18.615 l -1.0434,-4.617 6.81557,5.784 c 3.74857,3.183 7.36896,5.787 8.04531,5.787 2.74,0 18.36079,-14.058 26.07759,-23.469 28.6797,-34.9755 35.41623,-85.5405 16.7718,-125.8905 -6.73767,-14.5815 -16.61462,-28.2615 -28.50648,-39.4815 -10.376,-9.7905 -23.16398,-18.4275 -27.28416,-18.4275 -1.4703,0 -7.08303,4.932 -12.47262,10.9605 -5.38958,6.03 -10.11953,10.644 -10.51101,10.2555 -0.3915,-0.375 0.045,-6.84 0.96975,-14.337 1.1154,-9.045 1.1559,-14.2605 0.12,-15.4995 -4.93353,-5.895 -43.94832,-7.275 -63.74443,-2.253 -55.74222,14.136 -93.35831,61.845 -93.35831,118.4025 0,56.1825 37.46384,103.98 92.74652,118.3335 16.23725,4.215 41.63057,4.2795 57.95774,0.15 z"
       id="path2988"
       inkscape:connector-curvature="0" />
    <g
       style="font-size:5px;font-style:normal;font-weight:normal;text-align:start;line-height:125%;letter-spacing:-0.1px;word-spacing:0px;text-anchor:start;fill:#000000;fill-opacity:1;stroke:none;font-family:Sans;-inkscape-font-specification:Balthazar"
       id="text2986"
       transform="matrix(15,0,0,15,16.000001,-14749.07)">
      <path
         d="m 5.0384167,1034.9957 0.2213818,0.067 c 0.1954528,-0.2278 0.3119432,-0.4417 0.3494715,-0.6415 0.037528,-0.1999 0.026093,-0.3648 -0.034305,-0.4949 -0.060398,-0.13 -0.1569331,-0.2075 -0.289604,-0.2324 -0.1326702,-0.025 -0.2527727,-0.01 -0.3603079,0.049 -0.1075339,0.058 -0.1966373,0.1395 -0.2673106,0.2449 -0.070671,0.1055 -0.1487571,0.2188 -0.2342574,0.3401 -0.085498,0.1213 -0.1676826,0.2339 -0.2465546,0.3378 -0.078869,0.1039 -0.1810649,0.1831 -0.3065879,0.2375 -0.1255193,0.054 -0.2652628,0.067 -0.4192308,0.038 -0.2391448,-0.045 -0.4146424,-0.1805 -0.5264934,-0.4067 -0.1118457,-0.2262 -0.138239,-0.4965 -0.07918,-0.8111 0.036292,-0.1932 0.1046037,-0.3856 0.2049352,-0.5771 l -0.121323,-0.058 0.017544,-0.093 0.8231384,0.1952 -0.017544,0.093 -0.217752,-0.01 c -0.2357603,0.2441 -0.3733256,0.471 -0.4126962,0.6806 -0.027069,0.1442 -0.01604,0.2616 0.033088,0.3521 0.049132,0.091 0.137583,0.1479 0.2653524,0.1719 0.1277739,0.024 0.2470568,-0.01 0.3578491,-0.09 0.110796,-0.084 0.2077229,-0.1941 0.2907808,-0.3294 0.083061,-0.1353 0.1702243,-0.2699 0.26149,-0.4037 0.091268,-0.1338 0.2094952,-0.2397 0.3546808,-0.3175 0.1451875,-0.078 0.3128097,-0.099 0.502867,-0.063 0.2882365,0.054 0.4967466,0.2035 0.625531,0.448 0.1287841,0.2446 0.1596467,0.5455 0.092588,0.9026 -0.039368,0.2097 -0.1213562,0.4385 -0.2459637,0.6865 l 0.095229,0.089 -0.046158,0.083 -0.711866,-0.4083 z"
         style="letter-spacing:-0.25px"
         id="path3644"
         inkscape:connector-curvature="0" />
      <path
         d="m 6.5463106,1032.4201 c -0.1089502,0.2688 -0.2860305,0.4461 -0.5312415,0.532 -0.245211,0.086 -0.5184198,0.068 -0.8196273,-0.054 -0.3012058,-0.1221 -0.5046061,-0.3125 -0.6102018,-0.5711 -0.1055927,-0.2586 -0.095775,-0.5424 0.029452,-0.8513 0.053846,-0.1328 0.1268961,-0.2686 0.2191512,-0.4074 l -0.08694,-0.078 0.030094,-0.074 0.6262796,0.2917 -0.031928,0.079 -0.1816752,-0.058 c -0.1659055,0.1341 -0.2798508,0.2777 -0.3418359,0.4306 -0.061983,0.1529 -0.047066,0.3091 0.04475,0.4686 0.091818,0.1595 0.2466137,0.2834 0.4643868,0.3717 0.2177745,0.088 0.4143519,0.1113 0.5897329,0.069 0.1753811,-0.042 0.2981335,-0.1498 0.3682575,-0.3228 0.070123,-0.173 0.079642,-0.3651 0.028555,-0.5765 l -0.1533211,-0.1539 0.052345,-0.076 0.595083,0.4085 -0.037546,0.093 -0.1186485,-0.053 c -0.019958,0.1824 -0.064999,0.3602 -0.1351218,0.5331 z"
         style="word-spacing:0px"
         id="path3646"
         inkscape:connector-curvature="0" />
      <path
         d="m 5.2416801,1030.3556 0.295279,-0.5761 0.2692799,0.1919 c -0.072843,-0.1477 -0.1111918,-0.2641 -0.1150452,-0.3491 -0.00385,-0.085 0.020723,-0.1699 0.073722,-0.2547 0.053001,-0.085 0.1121853,-0.1637 0.1775523,-0.2368 l 0.4785547,0.3286 -0.045047,0.072 -0.2008336,-0.084 c -0.079568,0.064 -0.1365786,0.1241 -0.1710323,0.1792 -0.034452,0.055 -0.052548,0.1156 -0.054286,0.1813 -0.00174,0.066 0.01645,0.1655 0.054563,0.2994 l 0.3031805,0.213 0.186583,0.1166 0.6614201,0.3663 0.1886317,-0.2358 0.077942,0.055 -0.4823405,0.7717 -0.083199,-0.046 0.04987,-0.1458 -0.6163725,-0.4383 -0.186583,-0.1166 -0.664089,-0.362 -0.1197259,0.1256 z"
         style="word-spacing:0px"
         id="path3648"
         inkscape:connector-curvature="0" />
      <path
         d="m 8.2902816,1029.2051 c 0.2396703,-0.2596 0.1795012,-0.5556 -0.1805076,-0.888 -0.4163617,-0.3845 -0.763597,-0.4261 -1.041707,-0.1249 -0.1244242,0.1347 -0.1720815,0.2711 -0.142972,0.4091 0.029111,0.138 0.1453084,0.3008 0.3485934,0.4886 0.4041046,0.3731 0.7429686,0.4115 1.0165932,0.1152 z m 0.1717616,0.2267 c -0.2102737,0.2277 -0.4409469,0.3436 -0.6920201,0.3477 -0.2510736,0 -0.4984507,-0.1063 -0.742132,-0.3313 -0.2436802,-0.225 -0.3774261,-0.4733 -0.401238,-0.7448 -0.02381,-0.2715 0.070008,-0.5217 0.2814529,-0.7507 0.2114468,-0.229 0.440904,-0.3461 0.6883724,-0.3512 0.2474684,-0.01 0.4942762,0.1059 0.740424,0.3332 0.2461464,0.2273 0.3811082,0.4767 0.4048857,0.7482 0.023775,0.2715 -0.069473,0.5212 -0.2797449,0.7489 z"
         style="word-spacing:0px"
         id="path3650"
         inkscape:connector-curvature="0" />
      <path
         d="m 7.5298073,1026.0626 0.47609,-0.4386 0.5363938,0.7737 0.7625762,0.9841 0.4940625,0.5723 0.1399658,-0.064 0.054248,0.078 -0.6007727,0.4656 -0.062088,-0.072 0.097159,-0.1195 -0.4268811,-0.6243 -0.7625762,-0.9841 -0.4980427,-0.5692 -0.1558596,0.076 z"
         style="word-spacing:0px"
         id="path3652"
         inkscape:connector-curvature="0" />
      <path
         d="m 8.7162418,1025.1913 0.5213882,-0.3837 0.4481666,0.8279 0.6498664,1.0619 0.428209,0.6231 0.146177,-0.049 0.04533,0.084 -0.648274,0.3968 -0.05379,-0.079 0.109697,-0.1081 -0.355716,-0.6674 -0.6498666,-1.0619 -0.4325038,-0.6205 -0.1633061,0.059 z"
         style="word-spacing:0px"
         id="path3654"
         inkscape:connector-curvature="0" />
      <path
         d="m 11.336779,1027.1434 -0.03388,0.1235 -0.07885,0.01 -0.055,-0.6459 0.07935,-0.018 0.0628,0.1962 c 0.18513,10e-5 0.34197,-0.028 0.470518,-0.083 0.128548,-0.055 0.216597,-0.1206 0.26415,-0.1956 0.04755,-0.075 0.05484,-0.1507 0.02187,-0.2272 -0.03297,-0.077 -0.09553,-0.1249 -0.187679,-0.145 -0.09215,-0.02 -0.196987,-0.028 -0.314506,-0.022 -0.11752,0.01 -0.235929,0.01 -0.355228,0 -0.1193,0 -0.231948,-0.031 -0.337947,-0.083 -0.105998,-0.052 -0.187689,-0.145 -0.245072,-0.2782 -0.05738,-0.1331 -0.0337,-0.2804 0.07104,-0.4416 0.104745,-0.1613 0.270391,-0.2908 0.496938,-0.3884 0.131631,-0.057 0.272003,-0.097 0.421115,-0.1216 l -0.0041,-0.1233 0.07357,-0.032 0.237532,0.6272 -0.08005,0.029 -0.09616,-0.16 c -0.250797,-8e-4 -0.440469,0.026 -0.569017,0.082 -0.211226,0.091 -0.286507,0.2069 -0.225843,0.3477 0.02637,0.061 0.08541,0.099 0.17713,0.1142 0.09172,0.015 0.196017,0.019 0.312893,0.012 0.116875,-0.01 0.2357,-0.01 0.356474,-0.01 0.120773,0 0.235594,0.031 0.344463,0.086 0.108868,0.055 0.189024,0.1418 0.240471,0.2612 0.07781,0.1806 0.06514,0.3575 -0.03801,0.5308 -0.103153,0.1734 -0.278699,0.3134 -0.526639,0.4203 -0.137797,0.059 -0.298565,0.1032 -0.482304,0.1315 z"
         style="word-spacing:0px"
         id="path3656"
         inkscape:connector-curvature="0" />
      <path
         d="m 15.587139,1025.4858 c 0.03682,0.03 0.20588,0.1484 0.50719,0.3566 l 0.162777,0.017 0.0056,0.095 -0.685852,0.075 -0.2252,-0.1713 c -0.185646,0.2016 -0.437519,0.3199 -0.75562,0.3549 -0.318104,0.035 -0.569851,-0.013 -0.755243,-0.1432 -0.185392,-0.1305 -0.293233,-0.3332 -0.323522,-0.6082 -0.01789,-0.1624 0.0039,-0.3065 0.0655,-0.4323 0.06156,-0.1259 0.169726,-0.2476 0.324501,-0.3653 -0.266266,-0.2859 -0.412449,-0.5473 -0.43855,-0.7842 -0.0261,-0.2369 0.02939,-0.4257 0.16646,-0.5666 0.137075,-0.1408 0.329021,-0.2248 0.575839,-0.252 0.246817,-0.027 0.441134,0.01 0.582952,0.1093 0.141816,0.1001 0.223129,0.2446 0.24394,0.4334 0.03978,0.3611 -0.182269,0.674 -0.666145,0.9386 0.191584,0.1868 0.518553,0.4458 0.980907,0.7772 0.02153,-0.1399 0.02636,-0.2637 0.0145,-0.3714 -0.01187,-0.1076 -0.03467,-0.2384 -0.0684,-0.3923 l -0.221432,-6e-4 -0.0065,-0.1051 0.780343,-0.086 0.01526,0.094 -0.145265,0.051 c 0.01658,0.394 -0.02808,0.7192 -0.133989,0.9756 z m -1.4824,-0.6265 c -0.129743,0.1619 -0.185852,0.3224 -0.168328,0.4814 0.04819,0.4374 0.282653,0.633 0.703387,0.5866 0.22538,-0.025 0.398641,-0.096 0.519783,-0.2132 -0.497295,-0.3746 -0.848909,-0.6595 -1.054842,-0.8548 z m 0.108586,-0.4746 c 0.167284,-0.1258 0.283454,-0.2434 0.348509,-0.3529 0.06505,-0.1094 0.09092,-0.2246 0.0776,-0.3456 -0.01333,-0.1209 -0.05962,-0.2139 -0.138876,-0.2789 -0.07926,-0.065 -0.177715,-0.091 -0.29536,-0.078 -0.117646,0.013 -0.206585,0.058 -0.266818,0.135 -0.06023,0.077 -0.0836,0.1768 -0.0701,0.2994 0.02007,0.1822 0.135089,0.3892 0.345046,0.621 z"
         style="font-size:5px;font-style:normal;font-variant:normal;font-weight:normal;font-stretch:normal;text-align:start;text-anchor:start;font-family:Balthazar;-inkscape-font-specification:Balthazar"
         id="path3658"
         inkscape:connector-curvature="0" />
      <path
         d="m 17.613201,1025.9734 0.27979,-0.8101 0.271218,-1.0092 0.163965,-0.8413 -0.135786,-0.073 0.02953,-0.09 c 0.39622,0.093 0.776173,0.1879 1.139859,0.2856 0.479703,0.1289 0.804719,0.3388 0.975051,0.6296 0.170325,0.2908 0.188883,0.6841 0.05567,1.1798 -0.272502,1.0141 -0.898035,1.3896 -1.8766,1.1266 l -1.076434,-0.3099 0.01977,-0.093 z m 0.659998,-0.7027 -0.117098,0.5898 c 0.14718,0.095 0.322154,0.1694 0.524923,0.2239 0.630894,0.1695 1.047982,-0.1239 1.251263,-0.8804 0.110744,-0.4121 0.109258,-0.7404 -0.0045,-0.985 -0.113723,-0.2445 -0.344418,-0.4135 -0.692087,-0.507 -0.151291,-0.041 -0.312739,-0.056 -0.484344,-0.047 l -0.206979,0.5968 z"
         style="letter-spacing:-0.37px"
         id="path3660"
         inkscape:connector-curvature="0" />
      <path
         d="m 20.822969,1027.327 c -0.235164,-0.1257 -0.385247,-0.3098 -0.450249,-0.5524 -0.065,-0.2426 -0.02093,-0.5073 0.132228,-0.7939 0.153154,-0.2867 0.356324,-0.4796 0.609511,-0.5786 0.253184,-0.099 0.508416,-0.08 0.765698,0.058 0.257278,0.1374 0.416237,0.2979 0.476878,0.4815 0.06064,0.1835 0.02418,0.4002 -0.109366,0.6502 -0.03768,0.071 -0.08213,0.1432 -0.13334,0.2179 l -1.21718,-0.6503 c -0.1115,0.2087 -0.155475,0.4006 -0.131926,0.5757 0.02355,0.1752 0.12058,0.3083 0.291099,0.3994 0.170517,0.091 0.375619,0.1175 0.615307,0.079 l 0.127458,-0.1645 0.07259,0.044 -0.296567,0.6296 -0.07052,-0.038 0.01451,-0.1227 c -0.228837,-0.032 -0.460881,-0.11 -0.696133,-0.2357 z m 0.205452,-1.3926 0.857925,0.4527 c 0.08954,-0.1676 0.121621,-0.3055 0.09624,-0.4135 -0.02539,-0.108 -0.107212,-0.1989 -0.245473,-0.2728 -0.273387,-0.1461 -0.509616,-0.068 -0.708689,0.2336 z"
         id="path3662"
         inkscape:connector-curvature="0" />
      <path
         d="m 22.596618,1028.5294 c -0.223507,-0.1848 -0.339273,-0.4071 -0.347298,-0.6668 -0.008,-0.2596 0.09152,-0.5147 0.298629,-0.7652 0.207111,-0.2505 0.449864,-0.3871 0.728258,-0.41 0.278392,-0.023 0.54604,0.072 0.802945,0.2844 0.110457,0.091 0.217969,0.2019 0.322534,0.3317 l 0.100917,-0.059 0.06174,0.051 -0.466746,0.5094 -0.0655,-0.054 0.109534,-0.1559 c -0.078,-0.1986 -0.180574,-0.3505 -0.307729,-0.4556 -0.12716,-0.1052 -0.280609,-0.138 -0.460346,-0.098 -0.179741,0.039 -0.344482,0.1498 -0.494224,0.3309 -0.149744,0.1811 -0.230901,0.3616 -0.243472,0.5416 -0.01257,0.1799 0.05307,0.3294 0.196928,0.4483 0.143855,0.119 0.324255,0.1859 0.5412,0.2008 l 0.192879,-0.1 0.05664,0.073 -0.568704,0.4445 -0.07702,-0.064 0.08661,-0.097 c -0.16799,-0.074 -0.323912,-0.1704 -0.467767,-0.2893 z"
         style="letter-spacing:-0.2px"
         id="path3664"
         inkscape:connector-curvature="0" />
      <path
         d="m 25.721973,1027.1978 0.451964,0.4634 -0.758106,0.5582 -0.962018,0.7902 -0.558037,0.5101 0.163413,0.254 -0.07665,0.057 -0.577634,-0.7032 0.07036,-0.064 0.122208,0.094 0.611984,-0.4445 0.962017,-0.7902 0.554841,-0.514 -0.08078,-0.1536 z m -1.044883,1.7449 0.027,-0.022 0.607723,0.07 0.362556,-0.039 -0.123522,-0.1898 0.08432,-0.063 0.568142,0.6916 -0.07024,0.064 -0.122326,-0.094 -1.005584,-0.1056 -0.274698,1.2803 0.0714,0.142 -0.07665,0.056 -0.422087,-0.5138 0.196057,-0.4782 z"
         id="path3666"
         inkscape:connector-curvature="0" />
      <path
         d="m 24.769897,1030.9031 -0.125941,-0.023 -0.01368,-0.078 0.638485,-0.1119 0.02486,0.077 -0.189921,0.08 c 0.01629,0.1844 0.05771,0.3382 0.124263,0.4613 0.06655,0.1232 0.139274,0.2051 0.218175,0.2459 0.0789,0.041 0.154998,0.041 0.228294,0 0.07329,-0.04 0.115904,-0.1062 0.127834,-0.1997 0.01193,-0.094 0.01006,-0.1987 -0.0056,-0.3153 -0.01566,-0.1166 -0.02723,-0.2344 -0.03471,-0.3535 -0.0075,-0.1191 0.01014,-0.2338 0.05285,-0.344 0.04271,-0.1102 0.127855,-0.1998 0.255428,-0.2687 0.127571,-0.069 0.276311,-0.058 0.446223,0.032 0.169908,0.09 0.313504,0.2436 0.43079,0.4607 0.06814,0.1261 0.120953,0.2623 0.158431,0.4087 l 0.122484,-0.015 0.03809,0.071 -0.603734,0.2921 -0.03598,-0.077 0.1508,-0.1099 c -0.02138,-0.2499 -0.06535,-0.4364 -0.131894,-0.5595 -0.109354,-0.2024 -0.231462,-0.2671 -0.366326,-0.1942 -0.05862,0.032 -0.0913,0.094 -0.09804,0.1865 -0.0067,0.093 -0.0016,0.1969 0.01552,0.3128 0.01709,0.1158 0.02978,0.2339 0.03808,0.3545 0.0083,0.1205 -0.01,0.2374 -0.05486,0.3507 -0.04487,0.1132 -0.12449,0.2008 -0.23886,0.2626 -0.172991,0.093 -0.350372,0.096 -0.532144,0.01 -0.181774,-0.087 -0.33684,-0.2499 -0.465199,-0.4874 -0.07134,-0.132 -0.129246,-0.2882 -0.173725,-0.4687 z"
         id="path3668"
         inkscape:connector-curvature="0" />
    </g>
  </g>
</svg>
