<svg xmlns="http://www.w3.org/2000/svg" viewBox="0 0 24 24"><path d="M2.305 20.653c-1.325-.558-.34-1.946.17-2.732.744-1.27 1.537-2.523 2.34-3.75 1.077-1.927 2.228-3.816 3.435-5.663.966-1.647 1.9-3.334 2.964-4.923.63-.682 1.7-.193 1.967.593 1.078 1.8 2.22 3.56 3.223 5.402-.028 1.038 1.1 1.33 1.438 2.26.66 1.064 1.3 2.15 1.84 3.273.99 1.24 1.755 2.647 2.548 4.017.705 1.313-1.016 1.84-2.02 1.61-4.978-.057-9.957-.02-14.936-.023-.985-.023-1.992.106-2.967-.064z"/><path d="M20.862 19.55c-.58-1.185-1.36-2.258-1.963-3.43-.587.14-1.232-.126-.777-.778-.058-1.01-.968-1.718-1.313-2.64-.08-.817-1.363-1.074-1.336-.116.302.754.187 1.534-.648 1.838-.722.75.556 1.468.782 2.195.627.99 1.26 1.978 1.888 2.968 1.122-.01 2.245.028 3.366-.038zm-14.216-.015c.822-1.228 1.605-2.482 2.335-3.767-.46-.548-.387-1.358.29-1.67.3.05.72.607.89.054.182.988.026 2.003.06 3-.9-.147-1.604.212-1.88 1.097-.185.498-1.17 1.556-.08 1.336 1.072.026 2.146.008 3.218-.055.336-.45.46-1.684.87-1.67.05.763-.08 2.063 1.095 1.713.992.014 1.986.047 2.977-.035-.533-.72-.728-2.068-1.56-2.32-.588.05-1.17.1-.985-.66.2-.87-1.046-1.69-.245-2.407.808-.423 1.298-1.252.658-2.063-.72-.908.493-1.153.974-1.677-.174-.9-1.005-1.684-1.43-2.543-.587-.928-1.18-1.853-1.714-2.813-.8.922-1.3 2.054-1.993 3.052-.867.875.04 1.83 1.016 1.978.455.126.712.315.09.29-.795.063-1.523.09-2.044-.544-.662.653-1.057 1.677-1.623 2.47-.406.85-1.232 1.69-1.324 2.578.322.45.21 1.025-.433.708-.848.39-.964 1.526-1.572 2.184-.274.567-.98 1.38-.95 1.816 1.12.043 2.243.025 3.36-.05z" fill="#f987f9"/></svg>