<svg xmlns="http://www.w3.org/2000/svg" viewBox="0 0 24 24"><path d="M13.79 12.01c.254-.925-.012-2.282-1.24-1.772-.69.146-2.387-.55-2.264.563.004.91.02 1.825-.117 2.727 1.04.504 2.23.066 3.32.273.56-.385.17-1.212.3-1.79zm-8.415 8.468c-.973-.626-2.05-1.585-1.894-2.86-.036-1.936.04-3.872-.02-5.804-.036-.74-.09-1.565.368-2.195.136-.87-.666-1.617-.388-2.526.033-.977-.058-1.968.105-2.934.466-1.022 1.81-.596 2.702-.68 2.632.037 5.265-.053 7.897.03 1.062.454 2.16-.335 3.243-.07 1.356-.222 2.757.784 3.113 2.077.08 1.082-.016 2.172.014 3.26.008 2.455.14 4.915-.032 7.37-.706.823.457 1.807.087 2.768.162 1.032-.7 1.882-1.714 1.63-4.356-.02-8.712-.004-13.068-.002-.14-.01-.278-.027-.413-.065z"/><path d="M10.544 19.105c.538-.705.925.887 1.658.36 1.135.002 2.27.017 3.406-.037-.806-1.586-1.737-3.103-2.602-4.657-.38.015-.762.028-1.143.042-.254.425-.33 1.42-.735 1.45-.2-.457.283-1.53-.507-1.49l-1.348-.03c-.12-1.13-1.344.14-1.888.344-.936.533-1.87 1.066-2.784 1.636-.235.767-.267 1.696.52 2.162.304.482.77.67 1.308.583h3.75l.366-.362z" fill="#e6e6e6"/><path d="M19.455 18.61c.278-.874-.62-1.436-.937-2.093.497-.534 1.39-.91 1.012-1.828-.035-2.173.047-4.348-.057-6.52-1.58.813-3.12 1.705-4.617 2.664-.197 1.24.005 2.497-.135 3.74-1.24.367.17 1.348.365 2.053.553.946 1.114 1.888 1.657 2.84h2.716c0-.286 0-.572-.003-.858z" fill="#e6e6e6"/><path d="M9.15 13.08c.18-1.252.04-2.52.093-3.777.815-.62-.51-1.498-.68-2.203-.494-.876-1.033-1.726-1.5-2.616l-2.55.038-.038 3.664c.708.46 1.04 1.455.208 1.97-.464.968-.074 2.053-.192 3.072.142.674-.356 2.108.315 2.32 1.47-.782 2.918-1.61 4.345-2.468z" fill="#e6e6e6"/><path d="M17.166 8.47c.785-.672 2.404-.846 2.362-2.136.04-.92-.747-2.004-1.736-1.835-.737 0-1.474.014-2.21.022-.41.436-.714 1.833-1.277 1.61-.004-.904-.388-2.024-1.502-1.63-1.546-.022-3.092-.035-4.636.03.652 1.48 1.657 2.773 2.326 4.24.266.568.926.33 1.418.39l2.893.05c.207 1.042 1.304-.35 1.87-.46.165-.094.33-.188.493-.283z" fill="#e6e6e6"/></svg>