<svg xmlns="http://www.w3.org/2000/svg" viewBox="0 0 24 24"><path d="M13.79 12.01c.254-.925-.012-2.282-1.24-1.772-.69.146-2.387-.55-2.264.563.004.91.02 1.826-.117 2.728 1.04.504 2.23.066 3.32.273.56-.384.17-1.21.3-1.79zm-8.415 8.468c-.973-.626-2.05-1.585-1.894-2.86-.035-1.936.04-3.872-.02-5.804-.035-.74-.09-1.565.37-2.195.135-.87-.667-1.618-.39-2.527.034-.977-.057-1.968.106-2.934.466-1.023 1.81-.597 2.702-.68 2.632.036 5.265-.054 7.897.03 1.062.453 2.16-.336 3.243-.07 1.356-.223 2.757.783 3.113 2.076.08 1.082-.015 2.172.015 3.26.008 2.455.14 4.915-.032 7.37-.706.823.457 1.807.087 2.768.162 1.032-.7 1.882-1.714 1.63-4.356-.02-8.712-.004-13.068-.002-.14-.01-.278-.027-.413-.065z"/><path d="M10.544 19.105c.538-.705.925.887 1.658.36 1.135.002 2.27.017 3.406-.037-.806-1.586-1.737-3.103-2.602-4.657-.38.016-.762.03-1.143.043-.254.425-.33 1.42-.735 1.45-.2-.457.283-1.53-.507-1.49l-1.347-.03c-.12-1.13-1.344.14-1.888.344-.936.533-1.87 1.066-2.784 1.636-.234.767-.266 1.696.52 2.162.305.482.77.67 1.31.583h3.75l.365-.362zM19.455 18.61c.278-.874-.62-1.436-.937-2.093.497-.534 1.39-.91 1.012-1.828-.035-2.174.047-4.35-.057-6.52-1.58.812-3.12 1.704-4.617 2.663-.197 1.24.005 2.497-.135 3.74-1.24.367.17 1.348.366 2.053.553.946 1.114 1.888 1.657 2.84h2.716c0-.286 0-.572-.004-.858zM9.15 13.08c.18-1.252.04-2.52.093-3.777.815-.62-.51-1.498-.68-2.203-.494-.876-1.033-1.726-1.5-2.616l-2.55.038-.038 3.664c.708.46 1.04 1.455.208 1.97-.464.968-.074 2.053-.192 3.072.143.674-.355 2.108.316 2.32 1.47-.782 2.918-1.61 4.345-2.468zM17.166 8.47c.785-.672 2.404-.846 2.362-2.136.04-.92-.747-2.004-1.736-1.835-.737 0-1.474.013-2.21.02-.41.437-.714 1.834-1.277 1.61-.004-.903-.388-2.023-1.502-1.63-1.546-.02-3.092-.034-4.636.03.652 1.48 1.657 2.774 2.326 4.24.266.57.926.33 1.418.39l2.894.05c.207 1.043 1.304-.35 1.87-.46.165-.093.33-.187.493-.282z" fill="#e6e6e6"/></svg>