<svg xmlns="http://www.w3.org/2000/svg" viewBox="0 0 24 24"><path d="M12.78 13.648c1.31-.534 1.418-2.663.092-3.247-1.127-.67-2.7.295-2.648 1.59-.037 1.183 1.232 2.118 2.347 1.73l.11-.034.102-.037zm-1.734 7.654c-.93-.235-2.185-.165-2.748-1.076-.434-.784.214-1.896-.798-2.298-.752-.592-1.377-1.455-2.04-2.012-1.103.178-2.437-.243-2.464-1.564-.382-1.163-.34-2.368-.15-3.548.028-.958.114-2.266 1.187-2.627.8-.24 1.844.21 2.162-.877.562-1.036 2.276-1.313 1.92-2.684-.127-1.4 1.412-1.708 2.48-1.845 1.617-.226 3.355-.12 4.84.59.95.603.012 2.047.924 2.53.747.607 1.4 1.307 1.99 2.06.83.27 2.353-.097 2.572 1.194.623 1.855.508 3.886.035 5.758-.388 1.14-1.66.997-2.587 1.076-.56 1.05-1.706 1.773-2.426 2.566.086.93-.038 2.25-1.195 2.403-1.2.364-2.465.38-3.705.357z"/><path d="M8.064 16.086c1.043-.363 1.135-1.658 1.32-2.58-.095-.93-.462-1.924.045-2.81.725-1.398 2.707-2.057 4.07-1.193.84-.03.872-1.07 1.335-1.57.348-.364 1.57-.35.96-1.11-.804-.388-1.18-1.094-.99-1.99.28-.865-.733-.8-1.3-.963-.53-.038-1.34-.298-1.71-.02-.355 1.03-1.014-.47-1.72.047-1.106.183-.777 1.262-.868 2-.403.88-1.467 1.127-2.003 1.904-.525.597-.956 1.735-1.944 1.43-1.106-.563-1.853 1.304-.754 1.77.55.64-1.093.624-.748 1.446.302.745-.146 1.938.784 2.297.543.126 1.113.02 1.67.054.442.574.898 1.915 1.852 1.29zm4.057 3.347c-.11-.733.867-.51.513.12.192.85 1.352.723 1.873.263.633-.734-.08-2.267 1.202-2.638.853.005.77-1.18.775-1.448.993.48.997-1.243 2.057-.938.948.205 1.8-.482 1.662-1.492-.157-1.06.076-2.115-.044-3.17-.067-.96-1.072-1.002-1.804-.926-.847.162-.96-1.502-2.028-1.018-.776.466-1.656 1.11-1.724 2.104.054.772.532 1.51.25 2.31-.283 1.513-1.898 2.585-3.403 2.217-.648-.208-1.8-.94-1.84.29.215 1.058-.97 1.23-1.215 2.033.202.513 1.087.646.84 1.42-.286.95.423 1.555 1.317 1.58.622.22 1.51.11 1.568-.707z" fill="#ffff81"/></svg>