<svg xmlns="http://www.w3.org/2000/svg" viewBox="0 0 24 24"><path d="M11.99 1.774c-1.397.47-2.09 1.897-3.21 2.754C7.307 5.958 5.853 7.42 4.53 8.99c-.784.637-1.65 1.184-2.29 1.978-.95.975-.034 2.356.922 2.915 2.862 2.66 5.44 5.605 8.297 8.266 1.08.37 1.84-.703 2.457-1.41 2.205-2.15 4.4-4.322 6.507-6.57.694-.63 1.808-1.17 1.73-2.26-.38-1.277-1.738-1.887-2.5-2.91-2.387-2.41-4.775-4.82-7.227-7.164l-.216-.05-.22-.013z"/><path d="M11.897 3.024c1.23 1.134 2.372 2.36 3.57 3.53-.098.928.953 1.202 1.606 1.54.66.398.995 1.15 1.58 1.645.57.593 1.226 1.104 1.79 1.7.775.935-.448 2.116-1.422 1.682-.39-.234-1.666-1.294-1.462-.233.564.7 1.09 1.642.26 2.38-.755.9-1.796 1.517-2.476 2.488-.426.762-1.63.974-2.06 1.235.193 1.012-1.022 2.32-1.96 1.487-1.146-.872-1.925-2.134-3.064-3.016-.62-.45-1.242-1.044-1.26-1.854-.57-.93-2.027-.778-2.47-1.836-.84-.624-1.795-1.853-.846-2.807.607-.874 2.015-1.188 2.76-.32.988.934 1.87 1.974 2.853 2.915.613.587 1.18 1.267 1.903 1.71.95.28 1.594-.657 2.11-1.292.404-.56 1.163-.766 1.437-1.443.68-1.16-.96-1.614-.98-2.674-.153-.96-1.356-.98-2.093-.89-.786.63.333 1.48.914 1.81.842.31 1.24 1.732-.01 1.56-.894.1.186 1.49-.94 1.437-.913 0-1.433-.803-1.894-1.45-1.055-1.14-2.215-2.177-3.32-3.266C6.326 8 7.445 7.527 8.117 6.934c.962-.95 1.633-2.19 2.778-2.953.35-.297.697-.606 1-.955z" fill="#8cc3f4"/></svg>