<svg xmlns="http://www.w3.org/2000/svg" viewBox="0 0 24 24"><path d="M2.305 20.653c-1.325-.558-.34-1.946.17-2.732.744-1.27 1.537-2.522 2.34-3.75 1.077-1.926 2.228-3.815 3.435-5.662.966-1.647 1.9-3.334 2.964-4.923.63-.682 1.7-.193 1.967.593 1.08 1.8 2.22 3.56 3.224 5.402-.028 1.038 1.1 1.33 1.438 2.26.66 1.064 1.3 2.15 1.84 3.273.99 1.24 1.755 2.647 2.548 4.017.705 1.313-1.016 1.84-2.02 1.61-4.978-.057-9.957-.02-14.936-.023-.985-.023-1.992.106-2.967-.064z"/><path d="M20.862 19.55c-.58-1.185-1.36-2.258-1.963-3.43-.588.14-1.233-.126-.778-.778-.058-1.01-.968-1.718-1.313-2.64-.08-.817-1.364-1.074-1.337-.116.302.754.187 1.534-.648 1.838-.722.75.556 1.468.782 2.195.627.99 1.26 1.977 1.888 2.967 1.122-.01 2.245.028 3.366-.038zm-14.216-.015c.822-1.228 1.605-2.482 2.335-3.767-.46-.548-.386-1.358.29-1.67.3.05.72.607.89.054.183.988.027 2.003.06 3-.9-.147-1.603.212-1.88 1.097-.184.497-1.17 1.555-.08 1.335 1.073.026 2.147.008 3.22-.055.335-.45.46-1.684.87-1.67.05.763-.08 2.063 1.094 1.713.992.014 1.986.047 2.977-.035-.532-.72-.727-2.068-1.56-2.32-.587.05-1.17.1-.984-.66.2-.87-1.046-1.69-.245-2.407.81-.422 1.3-1.25.66-2.062-.72-.908.492-1.153.973-1.677-.174-.9-1.005-1.683-1.43-2.542-.587-.928-1.18-1.853-1.714-2.813-.8.922-1.3 2.054-1.994 3.052-.867.875.04 1.83 1.016 1.978.455.126.712.315.09.29-.795.063-1.523.09-2.044-.544-.662.654-1.057 1.678-1.623 2.47-.406.85-1.232 1.69-1.324 2.58.323.45.21 1.024-.432.707-.848.39-.964 1.526-1.572 2.184-.274.568-.98 1.38-.95 1.817 1.12.043 2.243.025 3.36-.05z" fill="#f987f9"/></svg>