<svg xmlns="http://www.w3.org/2000/svg" viewBox="0 0 24 24"><path d="M11.754 22.222c-.945-.404-1.103-1.644-1.636-2.435-.472-.55-.557-2.168-1.545-1.678-1.005.227-2 .44-2.982.752-.824.11-1.783.738-2.54.145-.753-.762.02-1.838.31-2.642.41-.932.81-1.872 1.257-2.787.865-.772 2.114-.917 3.044-1.588-.73-.548-1.614-.763-2.424-1.158-.91-.34-1-1.437-1.402-2.195-.376-1.02-1.14-1.973-1.086-3.098.352-1.396 1.937-.555 2.858-.403 1.174.275 2.35.596 3.515.87.88-1.27 1.346-2.803 2.24-4.07 1.14-.716 1.854.632 2.183 1.525.392.88.828 1.742 1.323 2.57 1.793-.447 3.573-.95 5.384-1.318 1.324.034 1.11 1.622.6 2.402-.512 1.142-.947 2.33-1.584 3.41-.903.6-1.977.886-2.89 1.466.927.61 2.08.854 2.948 1.546.727 1.43 1.4 2.9 1.922 4.416.295 1.426-1.413 1.483-2.326 1.026-1.372-.298-2.717-.77-4.11-.943-.6.94-1.03 1.948-1.483 2.964-.267.67-.724 1.428-1.573 1.22z"/><path d="M13.067 8.503c.78-.727 1.17-1.94.43-2.82-.336-.287-1.304.35-.783-.49.247-.663-.21-2.02-.88-2.037-.41.814-.772 1.66-1.195 2.48-.435.82-.91 1.7-.077 2.418.437.638.912 1.25 1.435 1.82.405-.415.72-.906 1.067-1.37zm7.053 9.566c-.494-1.294-1.04-2.566-1.635-3.814-1.56-.815-3.242-1.38-4.77-2.26 1.528-.88 3.21-1.443 4.77-2.26.62-1.267 1.183-2.564 1.668-3.89-1.652.338-3.282.776-4.915 1.195-.813.697-1.758 1.606-1.557 2.786.357 1.104-.72 1.568-1.173 2.343-.237.785.193 1.594.59 2.254.488.696 1.11 1.29 1.55 2.02.727.61 1.923 1.06 2.833.813.66-.55.394.597 1.088.53.5.173 1.027.25 1.552.28zm-15.14-.187c1.055.245 1.48-1.286 1.84-1.633.07.62.39 1.395 1.125.932 1.07-.148 1.723-1.1 2.295-1.91.764-.728 1.11-1.762 1.347-2.762.312-.524 1.543-1.206.98-1.78-1.078.28-1.32-.948-1.95-1.54-.547-.707-1.095-1.415-1.688-2.084-1.68-.472-3.376-.898-5.083-1.26.084.85.818 1.94 1.37 1.892-.488.803.023 1.917.78 2.34.614.368 1.785-1.024 1.475.144.087 1.002 1.422.854 2.078 1.335.712.17.65.798-.064.91-.78.305-1.626.596-2.15 1.24-.814-.12-1.62.213-2.043.925-.462 1.17-1.033 2.294-1.464 3.48.4.055.76-.175 1.15-.228zm7.856 1.462c-.198-.372-1.106-1.643-.054-1.094.95.254 1.53-1.292.86-1.914-.502-.772-1.05-1.515-1.644-2.22-.758.834-1.424 1.75-2.013 2.708.604 1.414 1.273 2.8 1.995 4.158.363-.5.64-1.06.856-1.637z" fill="#8cf48c"/></svg>